:FULLY-SPECIFIED
:FORCE-ALL-JOINTS-BE-3DOF
:DEGREES
2752
root -5.559 13.9753 -28.4071 1242 -65.4881 -161.137
lfemur -59.5385 42.9623 -6.57913
ltibia 68.1249 0 0
lfoot -2.39851 -0.81729 0
ltoes -31.4508 0 0
rfemur -30.8892 -18.4121 21.6703
rtibia 82.113 0 0
rfoot -35.2584 -24.75 0
rtoes -14.4501 0 0
lowerback 15.6667 5.79914 0.491115
upperback -4.01752 8.07856 1.4492
thorax -13.4247 3.78607 -0.844322
lowerneck -2.49027 9.60068 2.10698
upperneck 7.69873 12.5515 1.93281
head 2.89222 6.33604 0.677191
lclavicle 1.77086e-14 -1.78708e-14 0
lhumerus 3.56791 10.4217 84.1629
lradius 95.1122 0 0
lwrist -18.7824 0 0
lhand -39.8132 387.957 0
lfingers 7.12502 0 0
lthumb -12.7888 -663.111 0
rclavicle -4.25795e-14 1.19918e-15 0
rhumerus -57.7612 50.9922 -110.101
rradius 114.094 0 0
rwrist -84.6685 0 0
rhand 4.41897 -386.826 0
rfingers 7.12502 0 0
rthumb 30.1316 305.604 0
2753
root -5.56922 13.9653 -28.4141 1242.02 -65.5483 -161.149
lfemur -59.5691 42.9867 -6.57944
ltibia 68.3275 0 0
lfoot -2.47306 -0.893552 0
ltoes -31.4403 0 0
rfemur -30.8792 -18.4712 21.6103
rtibia 82.2023 0 0
rfoot -35.2742 -24.7549 0
rtoes -14.4412 0 0
lowerback 15.6476 5.8154 0.518626
upperback -4.04713 8.10436 1.42758
thorax -13.4402 3.79446 -0.889647
lowerneck -2.49877 9.58422 2.14014
upperneck 7.73747 12.5273 1.92461
head 2.90994 6.32468 0.670926
lclavicle 1.08319e-14 -1.67153e-14 0
lhumerus 3.58185 10.4348 84.1873
lradius 95.0618 0 0
lwrist -18.8432 0 0
lhand -39.793 387.943 0
lfingers 7.12502 0 0
lthumb -12.7837 -663.084 0
rclavicle -4.2903e-14 9.79147e-16 0
rhumerus -57.7857 50.9789 -110.123
rradius 114.092 0 0
rwrist -84.6606 0 0
rhand 4.47364 -386.811 0
rfingers 7.12502 0 0
rthumb 30.1825 305.626 0
2754
root -5.57894 13.9571 -28.4224 1241.95 -65.592 -161.081
lfemur -59.6175 43.0251 -6.57993
ltibia 68.5261 0 0
lfoot -2.55322 -0.975553 0
ltoes -31.4367 0 0
rfemur -30.8691 -18.531 21.5497
rtibia 82.2757 0 0
rfoot -35.3195 -24.7688 0
rtoes -14.4291 0 0
lowerback 15.6284 5.81379 0.527852
upperback -4.06573 8.10608 1.4406
thorax -13.4512 3.79499 -0.879979
lowerneck -2.49923 9.58805 2.13763
upperneck 7.77546 12.5307 1.93944
head 2.92176 6.32675 0.677531
lclavicle 3.61176e-15 -1.5502e-14 0
lhumerus 3.59237 10.4447 84.2057
lradius 95.0135 0 0
lwrist -18.9003 0 0
lhand -39.7728 387.929 0
lfingers 7.12502 0 0
lthumb -12.778 -663.054 0
rclavicle -4.31042e-14 8.42249e-16 0
rhumerus -57.8123 50.9645 -110.147
rradius 114.091 0 0
rwrist -84.6508 0 0
rhand 4.53291 -386.795 0
rfingers 7.12502 0 0
rthumb 30.2342 305.648 0
2755
root -5.58663 13.9494 -28.4325 1241.89 -65.6676 -160.998
lfemur -59.6813 43.0759 -6.58058
ltibia 68.7183 0 0
lfoot -2.63796 -1.06225 0
ltoes -31.4481 0 0
rfemur -30.8591 -18.5901 21.4897
rtibia 82.331 0 0
rfoot -35.391 -24.7908 0
rtoes -14.4141 0 0
lowerback 15.597 5.79832 0.516889
upperback -4.07654 8.0867 1.47202
thorax -13.4517 3.78869 -0.831747
lowerneck -2.53522 9.60926 2.05311
upperneck 7.81642 12.5581 1.99674
head 2.93229 6.34013 0.712642
lclavicle -3.85366e-15 -1.42476e-14 0
lhumerus 3.59901 10.451 84.2173
lradius 94.9678 0 0
lwrist -18.9533 0 0
lhand -39.7529 387.915 0
lfingers 7.12502 0 0
lthumb -12.7718 -663.021 0
rclavicle -4.31735e-14 7.95139e-16 0
rhumerus -57.8405 50.9493 -110.173
rradius 114.09 0 0
rwrist -84.6395 0 0
rhand 4.59574 -386.778 0
rfingers 7.12502 0 0
rthumb 30.2861 305.671 0
2756
root -5.59802 13.9368 -28.4377 1241.85 -65.6691 -160.959
lfemur -59.7584 43.1373 -6.58136
ltibia 68.9013 0 0
lfoot -2.72628 -1.1526 0
ltoes -31.4806 0 0
rfemur -30.8494 -18.6477 21.4314
rtibia 82.3658 0 0
rfoot -35.4854 -24.8199 0
rtoes -14.3966 0 0
lowerback 15.5762 5.80202 0.55795
upperback -4.09551 8.10041 1.4718
thorax -13.4552 3.7917 -0.856878
lowerneck -2.50017 9.59224 2.10375
upperneck 7.7684 12.538 1.94791
head 2.9165 6.32991 0.685279
lclavicle -1.14663e-14 -1.29684e-14 0
lhumerus 3.60133 10.4532 84.2214
lradius 94.9252 0 0
lwrist -19.0013 0 0
lhand -39.7335 387.901 0
lfingers 7.12502 0 0
lthumb -12.7651 -662.985 0
rclavicle -4.30079e-14 7.44646e-16 0
rhumerus -57.8701 50.9333 -110.2
rradius 114.09 0 0
rwrist -84.6267 0 0
rhand 4.66112 -386.761 0
rfingers 7.12502 0 0
rthumb 30.3378 305.693 0
2757
root -5.60693 13.9252 -28.4443 1241.9 -65.7222 -161.03
lfemur -59.8466 43.2074 -6.58225
ltibia 69.0725 0 0
lfoot -2.81715 -1.24556 0
ltoes -31.5319 0 0
rfemur -30.8402 -18.7025 21.3758
rtibia 82.3779 0 0
rfoot -35.5994 -24.855 0
rtoes -14.3767 0 0
lowerback 15.5737 5.7869 0.515582
upperback -4.10885 8.07194 1.47169
thorax -13.4754 3.78146 -0.826939
lowerneck -2.50216 9.60982 2.07436
upperneck 7.75753 12.5594 2.00235
head 2.90717 6.34156 0.706783
lclavicle -1.91279e-14 -1.16809e-14 0
lhumerus 3.59984 10.4581 84.2198
lradius 94.8865 0 0
lwrist -19.0437 0 0
lhand -39.715 387.888 0
lfingers 7.12502 0 0
lthumb -12.758 -662.947 0
rclavicle -4.25271e-14 5.98093e-16 0
rhumerus -57.9008 50.9167 -110.228
rradius 114.089 0 0
rwrist -84.6128 0 0
rhand 4.72804 -386.743 0
rfingers 7.12502 0 0
rthumb 30.3887 305.715 0
2758
root -5.61596 13.9148 -28.4525 1241.83 -65.724 -160.962
lfemur -59.9437 43.2847 -6.58323
ltibia 69.2294 0 0
lfoot -2.90955 -1.34008 0
ltoes -31.5996 0 0
rfemur -30.8316 -18.7535 21.324
rtibia 82.3905 0 0
rfoot -35.7298 -24.8952 0
rtoes -14.3547 0 0
lowerback 15.5596 5.79092 0.528375
upperback -4.12746 8.08127 1.47833
thorax -13.4879 3.78483 -0.828776
lowerneck -2.48614 9.60261 2.1363
upperneck 7.74773 12.5489 1.97571
head 2.90719 6.33711 0.687546
lclavicle -2.67405e-14 -1.04017e-14 0
lhumerus 3.5955 10.4722 84.2153
lradius 94.8521 0 0
lwrist -19.0798 0 0
lhand -39.6976 387.875 0
lfingers 7.12502 0 0
lthumb -12.7507 -662.908 0
rclavicle -4.17555e-14 3.6287e-16 0
rhumerus -57.9322 50.8997 -110.256
rradius 114.086 0 0
rwrist -84.598 0 0
rhand 4.79546 -386.724 0
rfingers 7.12502 0 0
rthumb 30.4381 305.736 0
2759
root -5.62471 13.9042 -28.4589 1241.98 -65.7491 -161.132
lfemur -60.0474 43.3672 -6.58429
ltibia 69.3693 0 0
lfoot -3.00245 -1.43513 0
ltoes -31.6815 0 0
rfemur -30.8238 -18.7997 21.2772
rtibia 82.4272 0 0
rfoot -35.8733 -24.9393 0
rtoes -14.3308 0 0
lowerback 15.5549 5.81651 0.482533
upperback -4.14211 8.10385 1.45279
thorax -13.5048 3.79747 -0.838371
lowerneck -2.49243 9.5854 2.15556
upperneck 7.74069 12.527 1.94952
head 2.90917 6.32599 0.675966
lclavicle -3.4206e-14 -9.14727e-15 0
lhumerus 3.58854 10.495 84.2081
lradius 94.8226 0 0
lwrist -19.1091 0 0
lhand -39.6816 387.864 0
lfingers 7.12502 0 0
lthumb -12.7432 -662.868 0
rclavicle -4.07173e-14 4.63651e-17 0
rhumerus -57.9641 50.8825 -110.285
rradius 114.082 0 0
rwrist -84.5824 0 0
rhand 4.86238 -386.706 0
rfingers 7.12502 0 0
rthumb 30.4855 305.757 0
